<svg version="1.0" viewBox="0 0 256 256" xmlns="http://www.w3.org/2000/svg">
 <path d="m64 0a8.0008 8.0008 0 0 0-8 8v16h-24a8.0008 8.0008 0 0 0-8 8v216a8.0008 8.0008 0 0 0 8 8h192a8.0008 8.0008 0 0 0 8-8v-216a8.0008 8.0008 0 0 0-8-8h-24v-16a8.0008 8.0008 0 0 0-8-8zm8 16h112v48h-112v-32zm-32 24h16v32a8.0008 8.0008 0 0 0 0.041016 0.79883 8.0008 8.0008 0 0 0 0.11914 0.79102 8.0008 8.0008 0 0 0 0.47266 1.5254 8.0008 8.0008 0 0 0 0.76563 1.4023 8.0008 8.0008 0 0 0 0.48437 0.63672 8.0008 8.0008 0 0 0 1.1445 1.1133 8.0008 8.0008 0 0 0 1.3457 0.86328 8.0008 8.0008 0 0 0 0.72852 0.32617 8.0008 8.0008 0 0 0 1.541 0.42578 8.0008 8.0008 0 0 0 1.3574 0.11719h128a8.0008 8.0008 0 0 0 1.5898-0.16016 8.0008 8.0008 0 0 0 1.5254-0.47266 8.0008 8.0008 0 0 0 0.72071-0.34766 8.0008 8.0008 0 0 0 0.68164-0.41797 8.0008 8.0008 0 0 0 2.2148-2.2793 8.0008 8.0008 0 0 0 0.97656-2.1836 8.0008 8.0008 0 0 0 0.29102-2.1387v-32h16v200h-176z" color="#000000" color-rendering="auto" dominant-baseline="auto" fill="#000003" image-rendering="auto" shape-rendering="auto" solid-color="#000000" style="font-feature-settings:normal;font-variant-alternates:normal;font-variant-caps:normal;font-variant-ligatures:normal;font-variant-numeric:normal;font-variant-position:normal;isolation:auto;mix-blend-mode:normal;shape-padding:0;text-decoration-color:#000000;text-decoration-line:none;text-decoration-style:solid;text-indent:0;text-orientation:mixed;text-transform:none;white-space:normal"/>
</svg>
