<?xml version="1.0" encoding="UTF-8" standalone="no"?>
<svg
   xmlns:dc="http://purl.org/dc/elements/1.1/"
   xmlns:cc="http://creativecommons.org/ns#"
   xmlns:rdf="http://www.w3.org/1999/02/22-rdf-syntax-ns#"
   xmlns:svg="http://www.w3.org/2000/svg"
   xmlns="http://www.w3.org/2000/svg"
   xmlns:sodipodi="http://sodipodi.sourceforge.net/DTD/sodipodi-0.dtd"
   xmlns:inkscape="http://www.inkscape.org/namespaces/inkscape"
   version="1.0"
   width="256"
   height="256"
   viewBox="0 0 256 256"
   id="svg1"
   sodipodi:docname="clipboard-0-inkscape-svg.svg"
   inkscape:version="0.92.4 (5da689c313, 2019-01-14)">
  <metadata
     id="metadata2">
    <rdf:RDF>
      <cc:Work
         rdf:about="">
        <dc:format>image/svg+xml</dc:format>
        <dc:type
           rdf:resource="http://purl.org/dc/dcmitype/StillImage" />
        <dc:title></dc:title>
      </cc:Work>
    </rdf:RDF>
  </metadata>
  <defs
     id="defs4" />
  <sodipodi:namedview
     pagecolor="#ffffff"
     bordercolor="#666666"
     borderopacity="1"
     objecttolerance="10"
     gridtolerance="10"
     guidetolerance="10"
     inkscape:pageopacity="0"
     inkscape:pageshadow="2"
     inkscape:window-width="1920"
     inkscape:window-height="1027"
     showgrid="false"
     inkscape:pagecheckerboard="true"
     inkscape:zoom="3.0820312"
     inkscape:cx="43.477819"
     inkscape:cy="128"
     inkscape:window-x="0"
     inkscape:window-y="36"
     inkscape:window-maximized="1"
     inkscape:current-layer="svg1"
     showguides="true"
     id="namedview10">
    <sodipodi:guide
       position="385.121,128"
       orientation="0,1"
       inkscape:locked="false"
       inkscape:label=""
       inkscape:color="rgb(0,0,255)"
       id="guide6" />
    <sodipodi:guide
       position="128,0"
       orientation="1,0"
       inkscape:locked="false"
       inkscape:label=""
       inkscape:color="rgb(0,0,255)"
       id="guide8" />
  </sodipodi:namedview>
  <path
     style="color:#000000;font-style:normal;font-variant:normal;font-weight:normal;font-stretch:normal;font-size:medium;line-height:normal;font-family:sans-serif;font-variant-ligatures:normal;font-variant-position:normal;font-variant-caps:normal;font-variant-numeric:normal;font-variant-alternates:normal;font-feature-settings:normal;text-indent:0;text-align:start;text-decoration:none;text-decoration-line:none;text-decoration-style:solid;text-decoration-color:#000000;letter-spacing:normal;word-spacing:normal;text-transform:none;writing-mode:lr-tb;direction:ltr;text-orientation:mixed;dominant-baseline:auto;baseline-shift:baseline;text-anchor:start;white-space:normal;shape-padding:0;clip-rule:nonzero;display:inline;overflow:visible;visibility:visible;opacity:1;isolation:auto;mix-blend-mode:normal;color-interpolation:sRGB;color-interpolation-filters:linearRGB;solid-color:#000000;solid-opacity:1;vector-effect:none;fill:#000003;fill-opacity:1;fill-rule:nonzero;stroke:none;stroke-width:16;stroke-linecap:square;stroke-linejoin:round;stroke-miterlimit:4;stroke-dasharray:none;stroke-dashoffset:0;stroke-opacity:1;color-rendering:auto;image-rendering:auto;shape-rendering:auto;text-rendering:auto;enable-background:accumulate"
     d="M 64,0 A 8.0008,8.0008 0 0 0 56,8 V 24 H 32 A 8.0008,8.0008 0 0 0 24,32 V 248 A 8.0008,8.0008 0 0 0 32,256 H 224 A 8.0008,8.0008 0 0 0 232,248 V 32 A 8.0008,8.0008 0 0 0 224,24 H 200 V 8 A 8.0008,8.0008 0 0 0 192,0 Z M 72,16 H 184 V 32 64 H 72 V 32 Z M 40,40 H 56 V 72 A 8.0008,8.0008 0 0 0 56.041016,72.798828 8.0008,8.0008 0 0 0 56.160156,73.589844 8.0008,8.0008 0 0 0 56.632812,75.115234 8.0008,8.0008 0 0 0 57.398438,76.517578 8.0008,8.0008 0 0 0 57.882812,77.154297 8.0008,8.0008 0 0 0 59.027344,78.267578 8.0008,8.0008 0 0 0 60.373047,79.130859 8.0008,8.0008 0 0 0 61.101562,79.457031 8.0008,8.0008 0 0 0 62.642578,79.882812 8.0008,8.0008 0 0 0 64,80 H 192 A 8.0008,8.0008 0 0 0 193.58984,79.839844 8.0008,8.0008 0 0 0 195.11523,79.367188 8.0008,8.0008 0 0 0 195.83594,79.019531 8.0008,8.0008 0 0 0 196.51758,78.601562 8.0008,8.0008 0 0 0 198.73242,76.322266 8.0008,8.0008 0 0 0 199.70898,74.138672 8.0008,8.0008 0 0 0 200,72 V 40 H 216 V 240 H 40 Z"
     id="rect820"
     inkscape:connector-curvature="0" />
</svg>
