<svg version="1.0" viewBox="0 0 256 256" xmlns="http://www.w3.org/2000/svg"><path d="M64 0a8 8 0 0 0-8 8v16H32a8 8 0 0 0-8 8v216a8 8 0 0 0 8 8h192a8 8 0 0 0 8-8V32a8 8 0 0 0-8-8h-24V8a8 8 0 0 0-8-8zm8 16h112v48H72V32zM40 40h16v32a8 8 0 0 0 .041.799 8 8 0 0 0 .12.79 8 8 0 0 0 .472 1.526 8 8 0 0 0 .765 1.403 8 8 0 0 0 .485.636 8 8 0 0 0 1.144 1.114 8 8 0 0 0 1.346.863 8 8 0 0 0 .729.326 8 8 0 0 0 1.54.426A8 8 0 0 0 64 80h128a8 8 0 0 0 1.59-.16 8 8 0 0 0 1.525-.473 8 8 0 0 0 .72-.347 8 8 0 0 0 .682-.418 8 8 0 0 0 2.215-2.28 8 8 0 0 0 .977-2.183 8 8 0 0 0 .29-2.14V40h16v200H40z" fill="currentColor"/></svg>
